/* XPM */
static char * nxagentIconData[] = {
"16 16 17 1",
" 	c None",
".	c #221401",
"+	c #331900",
"@	c #492606",
"#	c #5F2D00",
"$	c #8F2D00",
"%	c #5A4327",
"&	c #874B01",
"*	c #C63A00",
"=	c #E14100",
"-	c #BF4C00",
";	c #BC6200",
">	c #E46D00",
",	c #987D57",
"'	c #E98300",
")	c #E08A32",
"!	c #FFAB63",
"           .    ",
"     ;.  @%+    ",
"   .@'@++@%%... ",
"  +,,)''@+%@..  ",
" >,%.)#;&.....  ",
" !);'&.#>+..+   ",
" );>''&;@-**==  ",
" +.+>>;+#===$+  ",
" ...--++===*..  ",
" @.@-..$$.+*#.  ",
" =*$..+=+..#**  ",
" =$...$=#..$**  ",
"  ...+==*$$**   ",
"    +$*******   ",
"     $++$**     ",
"      $$*       "};
