/* XPM */
static char * nxagentIconData[] = {
"48 48 552 2",
"  	c None",
". 	c #FC340F",
"+ 	c #FC340E",
"@ 	c #F4330E",
"# 	c #DD2E0D",
"$ 	c #FE340E",
"% 	c #FF350F",
"& 	c #FE340F",
"* 	c #B3250A",
"= 	c #F0320E",
"- 	c #B76817",
"; 	c #F38A1F",
"> 	c #F88D20",
", 	c #F98D20",
"' 	c #F78D20",
") 	c #F48B1F",
"! 	c #E3811D",
"~ 	c #F1320E",
"{ 	c #FD340E",
"] 	c #851B07",
"^ 	c #F98E20",
"/ 	c #FE9020",
"( 	c #FF9121",
"_ 	c #E72F0D",
": 	c #891C08",
"< 	c #FE9021",
"[ 	c #995713",
"} 	c #A42109",
"| 	c #F3320E",
"1 	c #541104",
"2 	c #F68B1F",
"3 	c #C77119",
"4 	c #E22E0D",
"5 	c #B9260B",
"6 	c #0F0300",
"7 	c #DC9F34",
"8 	c #FFB93D",
"9 	c #F78C20",
"0 	c #77440F",
"a 	c #BF270B",
"b 	c #F6330E",
"c 	c #ED310D",
"d 	c #9C2009",
"e 	c #180501",
"f 	c #000000",
"g 	c #FEB83C",
"h 	c #DB9F34",
"i 	c #BF6C18",
"j 	c #EE871E",
"k 	c #5A330B",
"l 	c #3B0C03",
"m 	c #511004",
"n 	c #310A02",
"o 	c #0B0200",
"p 	c #0D0701",
"q 	c #CE9531",
"r 	c #FDB73C",
"s 	c #84601F",
"t 	c #F58B1F",
"u 	c #F1891F",
"v 	c #965513",
"w 	c #462809",
"x 	c #A85F15",
"y 	c #854B11",
"z 	c #E5A636",
"A 	c #B56717",
"B 	c #492909",
"C 	c #2B1805",
"D 	c #301B06",
"E 	c #4E2C0A",
"F 	c #804810",
"G 	c #BC6B18",
"H 	c #FC8F20",
"I 	c #E6821D",
"J 	c #F0881F",
"K 	c #FB8F20",
"L 	c #F2AF39",
"M 	c #AC7C29",
"N 	c #010000",
"O 	c #130A02",
"P 	c #472809",
"Q 	c #C26E19",
"R 	c #CE751A",
"S 	c #E0A335",
"T 	c #F4B13A",
"U 	c #905212",
"V 	c #75420F",
"W 	c #FEB83D",
"X 	c #E9A937",
"Y 	c #523B13",
"Z 	c #6F3F0E",
"` 	c #D5781B",
" .	c #F9B43B",
"..	c #76551C",
"+.	c #040301",
"@.	c #AC6216",
"#.	c #F68C1F",
"$.	c #5B340B",
"%.	c #F1AE39",
"&.	c #C08B2D",
"*.	c #150F05",
"=.	c #E07F1D",
"-.	c #AC6116",
";.	c #503A13",
">.	c #204982",
",.	c #224B85",
"'.	c #264D83",
").	c #4C5A77",
"!.	c #7F695C",
"~.	c #AF7745",
"{.	c #E0862D",
"].	c #EA851E",
"^.	c #FD8F20",
"/.	c #FB8E20",
"(.	c #D5791B",
"_.	c #664A18",
":.	c #E7A737",
"<.	c #090602",
"[.	c #224C89",
"}.	c #335A92",
"|.	c #6584B0",
"1.	c #87A1BB",
"2.	c #A2B8C3",
"3.	c #B5C9C1",
"4.	c #A5BBD7",
"5.	c #88A2C5",
"6.	c #6E87AC",
"7.	c #3A5B8E",
"8.	c #81695C",
"9.	c #F88E24",
"0.	c #422508",
"a.	c #E5821D",
"b.	c #BA872C",
"c.	c #B9862C",
"d.	c #224D8A",
"e.	c #6988B2",
"f.	c #B3C4A9",
"g.	c #ABBF9B",
"h.	c #ABBD6C",
"i.	c #AFBE4D",
"j.	c #BECF4D",
"k.	c #96B3A1",
"l.	c #90AFD6",
"m.	c #9CB7D9",
"n.	c #B0C4DF",
"o.	c #6985AC",
"p.	c #3C557D",
"q.	c #C97E35",
"r.	c #61370C",
"s.	c #FA8E20",
"t.	c #684B19",
"u.	c #FDB83C",
"v.	c #936B23",
"w.	c #2F578F",
"x.	c #9EB4CB",
"y.	c #B1C4AD",
"z.	c #85A38D",
"A.	c #7F9F93",
"B.	c #87A57C",
"C.	c #9AAF40",
"D.	c #A5BE96",
"E.	c #9DB8BD",
"F.	c #7FA3D1",
"G.	c #86A7AA",
"H.	c #9FB86E",
"I.	c #A7BDA8",
"J.	c #92ABC2",
"K.	c #2E548C",
"L.	c #122034",
"M.	c #FD9020",
"N.	c #EB861E",
"O.	c #F7B33B",
"P.	c #886320",
"Q.	c #234C8A",
"R.	c #A2B8CD",
"S.	c #9FB679",
"T.	c #7296A5",
"U.	c #83A493",
"V.	c #84A5D0",
"W.	c #94B1B7",
"X.	c #88A8C4",
"Y.	c #86AAD7",
"Z.	c #8AABC3",
"`.	c #A1BAB8",
" +	c #B1C65A",
".+	c #96B27E",
"++	c #ACC13D",
"@+	c #A0B75D",
"#+	c #90AACA",
"$+	c #204983",
"%+	c #F6B23B",
"&+	c #214B88",
"*+	c #6E8CB1",
"=+	c #AABD72",
"-+	c #9DB341",
";+	c #A2B979",
">+	c #CBD778",
",+	c #AEC4C7",
"'+	c #AAC1E0",
")+	c #AEC5E3",
"!+	c #A4BFE1",
"~+	c #8BADCD",
"{+	c #96B29D",
"]+	c #BACD81",
"^+	c #B3C744",
"/+	c #B1C437",
"(+	c #ABBE33",
"_+	c #9EB474",
":+	c #5F7FAC",
"<+	c #1F457D",
"[+	c #ED861E",
"}+	c #AE6316",
"|+	c #694D19",
"1+	c #345B93",
"2+	c #B1C2A7",
"3+	c #A0B32B",
"4+	c #ABBD39",
"5+	c #C7D47E",
"6+	c #AEC3BB",
"7+	c #9CB7D5",
"8+	c #9AB6DA",
"9+	c #ACC4E2",
"0+	c #B0C7E4",
"a+	c #9EBBD0",
"b+	c #B8CE5E",
"c+	c #C0D272",
"d+	c #B5C945",
"e+	c #B2C537",
"f+	c #A5B82E",
"g+	c #9AB2AD",
"h+	c #335990",
"i+	c #935312",
"j+	c #DC7D1C",
"k+	c #3D2308",
"l+	c #B4822B",
"m+	c #C6A05E",
"n+	c #808082",
"o+	c #808083",
"p+	c #7F8083",
"q+	c #778597",
"r+	c #88AAD4",
"s+	c #ACC3E1",
"t+	c #B3C9C4",
"u+	c #9FBB89",
"v+	c #8FAFB6",
"w+	c #8EADA6",
"x+	c #91AD73",
"y+	c #A8BB36",
"z+	c #A4B72E",
"A+	c #90A96B",
"B+	c #5E7FAD",
"C+	c #824A11",
"D+	c #4C3812",
"E+	c #EFAD39",
"F+	c #FAFAFA",
"G+	c #FFFFFF",
"H+	c #7F7F82",
"I+	c #749ACB",
"J+	c #A5BEDE",
"K+	c #BFD1B2",
"L+	c #C3D54A",
"M+	c #BCCE48",
"N+	c #AEC376",
"O+	c #96B164",
"P+	c #A7BA36",
"Q+	c #9FB334",
"R+	c #98AD35",
"S+	c #7493BA",
"T+	c #1F4780",
"U+	c #281605",
"V+	c #1F1104",
"W+	c #010100",
"X+	c #3C2C0E",
"Y+	c #FCFCFD",
"Z+	c #30578F",
"`+	c #204A87",
" @	c #325890",
".@	c #7CA0CC",
"+@	c #AAC1CD",
"@@	c #D2DF7B",
"#@	c #BDD03F",
"$@	c #BFD04E",
"%@	c #BACB4A",
"&@	c #AFC235",
"*@	c #8CA862",
"=@	c #9CB137",
"-@	c #799871",
";@	c #85A2BF",
">@	c #204A86",
",@	c #906922",
"'@	c #F8F9FB",
")@	c #224B87",
"!@	c #5A81B5",
"~@	c #5D84B6",
"{@	c #6187B8",
"]@	c #658ABA",
"^@	c #698DBB",
"/@	c #6D90BD",
"(@	c #7193BF",
"_@	c #9CB5D7",
":@	c #AEC4BA",
"<@	c #C6D65C",
"[@	c #B9CC3C",
"}@	c #C2D15A",
"|@	c #B3C63A",
"1@	c #ACBF34",
"2@	c #93AB51",
"3@	c #91A945",
"4@	c #5F858D",
"5@	c #89A6CB",
"6@	c #244E8A",
"7@	c #567EB3",
"8@	c #5981B4",
"9@	c #5E85B7",
"0@	c #6489B9",
"a@	c #698EBC",
"b@	c #6C91BE",
"c@	c #7194C0",
"d@	c #7597C2",
"e@	c #7697C2",
"f@	c #7496C1",
"g@	c #7495C0",
"h@	c #7294C0",
"i@	c #96B2D4",
"j@	c #8BA9C2",
"k@	c #B0C345",
"l@	c #B6C840",
"m@	c #BFCF5B",
"n@	c #AEC135",
"o@	c #AABD32",
"p@	c #A3B62F",
"q@	c #8DA545",
"r@	c #4D79B2",
"s@	c #7C9AC2",
"t@	c #C99230",
"u@	c #547DB2",
"v@	c #5A83B6",
"w@	c #6087B9",
"x@	c #668CBC",
"y@	c #6A90BF",
"z@	c #6F93C1",
"A@	c #7397C2",
"B@	c #7799C4",
"C@	c #7B9CC6",
"D@	c #7A9BC5",
"E@	c #789AC4",
"F@	c #7799C3",
"G@	c #5C86BB",
"H@	c #5883BA",
"I@	c #668CA9",
"J@	c #7E9EBE",
"K@	c #82A179",
"L@	c #A7BA30",
"M@	c #A2B52C",
"N@	c #6E8F6F",
"O@	c #567FB5",
"P@	c #6486B4",
"Q@	c #204984",
"R@	c #EBAB38",
"S@	c #224C87",
"T@	c #5680B5",
"U@	c #5C85B8",
"V@	c #628ABC",
"W@	c #688FBE",
"X@	c #6C93C1",
"Y@	c #7196C3",
"Z@	c #7699C5",
"`@	c #799CC7",
" #	c #7D9FC8",
".#	c #7599C5",
"+#	c #668EBE",
"@#	c #5B86B9",
"##	c #517DB4",
"$#	c #4574AE",
"%#	c #4F7CB5",
"&#	c #6188BC",
"*#	c #7296C3",
"=#	c #5480B7",
"-#	c #628996",
";#	c #A4B72D",
">#	c #99AE32",
",#	c #406FA8",
"'#	c #4C71A4",
")#	c #956C23",
"!#	c #224C88",
"~#	c #5681B7",
"{#	c #5E88BA",
"]#	c #648DBE",
"^#	c #6991C0",
"/#	c #6E96C3",
"(#	c #7399C6",
"_#	c #779CC8",
":#	c #7299C5",
"<#	c #5E8ABE",
"[#	c #5180B8",
"}#	c #4F7FB7",
"|#	c #4D7CB5",
"1#	c #4A7AB3",
"2#	c #4777B1",
"3#	c #658BBC",
"4#	c #5A82B7",
"5#	c #4976B0",
"6#	c #4875B0",
"7#	c #4C79A5",
"8#	c #96AB31",
"9#	c #3E6DA9",
"0#	c #6E90BD",
"a#	c #2E5590",
"b#	c #B3812A",
"c#	c #5783B8",
"d#	c #5E89BC",
"e#	c #658EBF",
"f#	c #6B93C3",
"g#	c #7198C6",
"h#	c #6F97C5",
"i#	c #628FC1",
"j#	c #5B89BF",
"k#	c #5A89BE",
"l#	c #5987BD",
"m#	c #5685BC",
"n#	c #5382BA",
"o#	c #507FB7",
"p#	c #4C7CB5",
"q#	c #406FAB",
"r#	c #4170AC",
"s#	c #4A769B",
"t#	c #9DB029",
"u#	c #64876D",
"v#	c #496EA2",
"w#	c #1F4984",
"x#	c #CF9631",
"y#	c #5682B8",
"z#	c #5B88BC",
"A#	c #5F8BBF",
"B#	c #628EC0",
"C#	c #618EC1",
"D#	c #608EC2",
"E#	c #6290C3",
"F#	c #6290C4",
"G#	c #5F8EC2",
"H#	c #5C8BC0",
"I#	c #5583BA",
"J#	c #3869A7",
"K#	c #3969A7",
"L#	c #3767A6",
"M#	c #8DA43C",
"N#	c #9AAD2C",
"O#	c #527BA0",
"P#	c #5F83B3",
"Q#	c #214A86",
"R#	c #4E7EB6",
"S#	c #5382B9",
"T#	c #5887BD",
"U#	c #5D8BC0",
"V#	c #618FC3",
"W#	c #6593C6",
"X#	c #6996C8",
"Y#	c #6A98C9",
"Z#	c #5886BD",
"`#	c #3465A4",
" $	c #608473",
".$	c #688B90",
"+$	c #5D82B3",
"@$	c #2A528B",
"#$	c #30588F",
"$$	c #325991",
"%$	c #3868A6",
"&$	c #4270AA",
"*$	c #4D78AF",
"=$	c #6288B8",
"-$	c #446A9F",
";$	c #204884",
">$	c #E4E4E1",
",$	c #6287B6",
"'$	c #6185B6",
")$	c #5379AC",
"!$	c #436A9E",
"~$	c #2B538A",
"{$	c #1C4074",
"]$	c #2F507E",
"^$	c #254E87",
"/$	c #2E507F",
"($	c #4D5C6D",
"_$	c #6E6755",
":$	c #2E3234",
"<$	c #B09058",
"[$	c #D69B33",
"}$	c #D29933",
"|$	c #D39831",
"1$	c #D89D33",
"2$	c #896320",
"3$	c #868883",
"4$	c #8D908A",
"5$	c #939690",
"6$	c #999C96",
"7$	c #9FA29C",
"8$	c #A5A8A2",
"9$	c #ABAEA7",
"0$	c #170401",
"a$	c #060100",
"b$	c #BE892D",
"c$	c #A37627",
"d$	c #898A89",
"e$	c #8B8C8B",
"f$	c #B3B5AF",
"g$	c #B5B8B1",
"h$	c #B8BBB4",
"i$	c #B2B4AE",
"j$	c #918E86",
"k$	c #968E7F",
"l$	c #FDB83E",
"m$	c #6A4D19",
"n$	c #989999",
"o$	c #DDDEDB",
"p$	c #BABDB5",
"q$	c #BBBEB7",
"r$	c #BFC5BA",
"s$	c #C6C9C2",
"t$	c #D3D5D0",
"u$	c #DDDFDA",
"v$	c #DCDFDA",
"w$	c #C6C8C2",
"x$	c #A09C92",
"y$	c #E1AB4C",
"z$	c #BC882D",
"A$	c #130E04",
"B$	c #B7B7B7",
"C$	c #DBDCD9",
"D$	c #BCBFB9",
"E$	c #CACCC6",
"F$	c #BCBFB8",
"G$	c #B8B8B6",
"H$	c #B1935C",
"I$	c #E8A837",
"J$	c #A97A28",
"K$	c #2A1E0A",
"L$	c #7E7E7F",
"M$	c #F8F8F8",
"N$	c #757372",
"O$	c #4A3511",
"P$	c #38290D",
"Q$	c #070501",
"R$	c #777779",
"S$	c #757578",
"T$	c #767678",
"U$	c #757577",
"V$	c #747477",
"W$	c #747476",
"X$	c #737376",
"Y$	c #737375",
"Z$	c #727275",
"`$	c #6E6E70",
"                                                                                                ",
"                                                                                                ",
"                                                                  . + @                         ",
"                                                              # $ % % $ & *                     ",
"                                                              $ % % % % % =                     ",
"                                          - ; > , ' ) !     ~ % % % % % % { ]                   ",
"                                    ^ / ( / ( / ( ( / (     _ % $ % % $ % & :                   ",
"                                    < ( ( ( ( ( ( ( ( ( [   } { % % % % % | 1                   ",
"                                    2 ( ( ( ( ( ( ( ( ( 3     4 % % % % % 5 6                   ",
"                          7 8         > ( / ( / ( ( / ( 9 0     a b + c d e f                   ",
"                        7 g 8 h       i ( ( ( ( ( ( ( ( ( j k     l m n o p                     ",
"                      q 8 8 8 r s       t ( ( ( ( ( ( ( ( ( u v         w x y                   ",
"                      g 8 8 8 g z       [ A 0 B C D E F G ; ( ( H j I J < ( K                   ",
"                    L 8 8 8 8 8 r M           f f     N O P Q > ( ( ( ( ( ( ( R                 ",
"                  S 8 8 8 8 8 8 8 T                           U , ( ( ( ( ( ( H V               ",
"                  W 8 g 8 8 8 g X Y                             Z H ( / ( ( / ( `               ",
"                  8 8 8 8 8 8  ...+.                              @.H ( ( ( ( ( #.$.            ",
"                %.8 8 8 8 8 8 &.*.f                                 =.( ( ( ( ( / -.            ",
"                  L 8 g 8 8 g ;.f                               >.,.'.).!.~.{.( ( ].            ",
"      u ^./.(.    _.L 8 8 8 :.<.                          [.}.|.1.2.3.4.5.6.7.8.9.H 0.          ",
"    / ( ( ( ( a.    b.8 8 8 c.f                         d.e.f.g.h.i.j.k.l.m.n.o.p.q.r.          ",
"  s./ ( ( / ( ( Q   t.u.8 W v.f                       w.x.y.z.A.B.C.D.E.F.G.H.I.J.K.L.          ",
"  M.( ( ( ( ( ( N.    O.8 g P.                      Q.R.S.T.U.V.W.X.Y.Z.`. +.+++@+#+$+          ",
"  ^.( ( ( ( ( ( N.    %+8 8 v.                    &+*+=+-+;+>+,+'+)+!+~+{+]+^+/+(+_+:+<+        ",
"  [+/ ( ( / ( < }+  |+u.8 8 c.                    1+2+3+4+5+6+7+8+9+0+a+b+c+d+e+(+f+g+h+        ",
"  i+> ( ( ( ( j+k+  l+8 8 m+n+o+o+o+o+o+o+o+o+o+o+o+o+o+o+o+o+p+q+r+s+t+u+v+w+x+y+z+A+B+        ",
"    C+N.M.s.3 P f D+E+g 8 n+F+G+G+G+G+G+G+G+G+G+G+G+G+G+G+G+G+F+H+I+J+K+L+M+N+O+P+Q+R+S+T+      ",
"        U+V+f W+X+E+8 8 8 o+Y+Z+`+`+`+`+`+`+`+`+`+`+`+`+`+`+ @G+o+.@+@@@#@$@%@&@*@=@-@;@>@      ",
"                ,@8 8 8 8 o+'@)@!@~@{@]@^@/@(@(@(@(@(@(@(@(@`+G+o+_@:@<@[@}@|@1@2@3@4@5@6@      ",
"                  r 8 g 8 o+'@)@7@8@9@0@a@b@c@d@e@d@f@g@h@(@`+G+o+i@j@k@l@m@n@o@p@q@r@s@>@      ",
"                  t@g 8 8 o+'@)@u@v@w@x@y@z@A@B@C@C@D@E@F@d@`+G+o+G@H@I@J@K@(+L@M@N@O@P@Q@      ",
"                    R@8 8 o+'@S@T@U@V@W@X@Y@Z@`@ #.#+#@###$#`+G+o+%#&#*#=#-#L@;#>#,#9@'#        ",
"                    )#g 8 o+'@!#~#{#]#^#/#(#_#:#<#[#}#|#1#2#`+G+o+3#4#5#6#7#z+3+8#9#0#a#        ",
"                      b#8 o+'@!#c#d#e#f#g#h#i#j#k#l#m#n#o#p#`+G+o+q#r#r#q#s#3+t#u#~@v#w#        ",
"                        x#o+'@!#y#z#A#B#C#D#E#F#E#G#H#l#I#o#`+G+o+J#K#K#J#L#M#N#O#P#Q#          ",
"                          o+'@!#R#S#T#U#V#W#X#Y#X#W#V#H#Z#S#`+G+o+`#`#`#`#`# $.$+$@$            ",
"                          o+Y+#$`+`+`+`+`+`+`+`+`+`+`+`+`+`+$$G+o+%$`#%$&$*$=$-$;$              ",
"                          o+G+>$>$>$>$>$>$>$>$>$>$>$>$>$>$>$>$G+o+,$0@'$)$!$~${$                ",
"                          o+F+G+G+G+G+G+G+G+G+G+G+G+G+G+G+G+G+F+H+]$^$/$($_$:$                  ",
"                            o+o+o+o+o+o+o+o+o+o+o+o+o+o+o+o+o+n+<$[$}$|$[$1$2$                  ",
"                                      3$4$5$6$7$8$9$3$0$a$  b$8 8 8 8 8 8 8 c$                  ",
"                          d$e$f$g$h$g$h$g$h$g$h$g$h$g$h$g$h$i$j$k$l$8 8 8  .m$                  ",
"                          n$o$p$q$r$s$r$t$r$u$r$v$r$t$r$w$r$p$o$x$y$8 g 8 z$A$                  ",
"                          B$C$g$g$D$g$E$g$g$g$g$g$g$g$E$g$F$g$C$G$H$%.I$J$K$f                   ",
"                        L$M$G+G+G+G+G+G+G+G+G+G+G+G+G+G+G+G+G+G+M$N$O$P$Q$f                     ",
"                        R$S$T$S$S$S$U$V$V$V$V$V$V$W$W$W$W$W$X$Y$Z$`$                            ",
"                                                                                                ",
"                                                                                                "};
