/* XPM */
static char * nxagentIconData[] = {
"16 16 17 1",
" 	c None",
".	c #231401",
"+	c #331900",
"@	c #4A2606",
"#	c #5F2D00",
"$	c #912E00",
"%	c #5A4327",
"&	c #874B01",
"*	c #C63A00",
"=	c #E34300",
"-	c #C55100",
";	c #B96100",
">	c #E46D00",
",	c #987D57",
"'	c #E98300",
")	c #E08A32",
"!	c #FFAB63",
"            .   ",
"           %+   ",
"    .@'@++@%%...",
"   +,,)''@+%@.  ",
"  >,%.)#;&....  ",
"  !);'&.#>+..+  ",
" =);>''&;@-**=  ",
" =+.+>>;+#===$+ ",
" =...--++===*.. ",
" =@.@-..$$.+*#. ",
"  =*$..+=+..#** ",
"  =$...$=#..$** ",
"    ..+==*$$**  ",
"     +$******   ",
"      $++$**    ",
"                "};
